<?xml version="1.0" encoding="UTF-8"?>
<!DOCTYPE svg PUBLIC "-//W3C//DTD SVG 1.1//EN" "http://www.w3.org/Graphics/SVG/1.1/DTD/svg11.dtd">
<svg xmlns="http://www.w3.org/2000/svg" version="1.1" width="1920px" height="1080px" style="shape-rendering:geometricPrecision; text-rendering:geometricPrecision; image-rendering:optimizeQuality; fill-rule:evenodd; clip-rule:evenodd" xmlns:xlink="http://www.w3.org/1999/xlink">
<g><path style="opacity:0.906" fill="#fefffe" d="M 965.5,293.5 C 975.849,293.968 985.016,297.635 993,304.5C 993.667,308.167 993.667,311.833 993,315.5C 977.409,372.769 963.076,430.436 950,488.5C 948.915,493.086 946.082,495.753 941.5,496.5C 933.017,494.619 925.183,491.286 918,486.5C 917.015,484.634 916.515,482.634 916.5,480.5C 932.113,419.929 947.28,359.263 962,298.5C 963.176,296.804 964.343,295.138 965.5,293.5 Z"/></g>
<g><path style="opacity:0.933" fill="#fefffe" d="M 1096.5,293.5 C 1122.5,293.333 1148.5,293.5 1174.5,294C 1228.37,301.714 1256.04,332.88 1257.5,387.5C 1257.06,420.217 1244.39,447.05 1219.5,468C 1209.35,475.274 1198.02,479.607 1185.5,481C 1159.83,480.548 1134.16,480.714 1108.5,481.5C 1095.94,483.77 1090.27,478.604 1091.5,466C 1094.13,413.667 1094.13,361.334 1091.5,309C 1090.51,302.791 1092.18,297.625 1096.5,293.5 Z M 1143.5,330.5 C 1144.77,331.09 1146.1,331.59 1147.5,332C 1188.53,327.486 1210.87,345.652 1214.5,386.5C 1210.2,435.375 1183.86,453.875 1135.5,442C 1135.5,405.667 1135.5,369.333 1135.5,333C 1138.46,332.721 1141.12,331.887 1143.5,330.5 Z"/></g>
<g><path style="opacity:0.984" fill="#020202" d="M 244.5,295.5 C 304.501,295.333 364.501,295.5 424.5,296C 451.585,300.084 469.085,315.251 477,341.5C 478.33,349.773 478.83,358.107 478.5,366.5C 519.216,368.047 544.049,388.714 553,428.5C 553.167,517.502 553.667,606.502 554.5,695.5C 581.361,703.542 593.194,721.542 590,749.5C 584.908,769.644 572.075,781.477 551.5,785C 406.833,785.667 262.167,785.667 117.5,785C 88.3788,778.52 75.5454,760.354 79,730.5C 84.037,711.963 95.8703,700.296 114.5,695.5C 115.333,606.502 115.833,517.502 116,428.5C 124.951,388.714 149.784,368.047 190.5,366.5C 187.908,338.852 198.242,317.686 221.5,303C 228.991,299.558 236.658,297.058 244.5,295.5 Z"/></g>
<g><path style="opacity:1" fill="#fe2c4e" d="M 473.5,439.5 C 473.5,444.833 473.5,450.167 473.5,455.5C 469.507,455.245 466.674,456.911 465,460.5C 467.737,481.298 461.57,498.798 446.5,513C 441.226,516.47 435.56,519.136 429.5,521C 416.874,522.207 404.208,522.874 391.5,523C 378.196,535.304 365.196,547.97 352.5,561C 340.5,568.333 328.5,568.333 316.5,561C 304.167,548.667 291.833,536.333 279.5,524C 266.222,522.916 252.888,521.916 239.5,521C 219.806,514.974 208.306,501.807 205,481.5C 204.333,437.833 204.333,394.167 205,350.5C 208.609,328.891 221.109,315.724 242.5,311C 303.833,310.333 365.167,310.333 426.5,311C 448.322,315.824 460.822,329.324 464,351.5C 464.333,379.167 464.667,406.833 465,434.5C 466.946,437.55 469.779,439.217 473.5,439.5 Z"/></g>
<g><path style="opacity:0.918" fill="#fefffe" d="M 900.5,337.5 C 905.543,336.431 909.377,338.097 912,342.5C 914.483,347.431 916.816,352.431 919,357.5C 919.667,359.833 919.667,362.167 919,364.5C 905.096,380.402 888.596,392.902 869.5,402C 887.763,411.946 903.929,424.446 918,439.5C 919.576,442.282 919.743,445.116 918.5,448C 915.43,453.359 912.596,458.859 910,464.5C 906.861,468.577 903.028,469.41 898.5,467C 878.636,447.801 856.303,432.135 831.5,420C 830.299,419.097 829.465,417.931 829,416.5C 828.333,407.167 828.333,397.833 829,388.5C 834.923,383.785 841.423,379.951 848.5,377C 866.864,365.129 884.197,351.963 900.5,337.5 Z"/></g>
<g><path style="opacity:0.917" fill="#fefffe" d="M 1004.5,337.5 C 1006.53,337.338 1008.53,337.505 1010.5,338C 1028.61,353.22 1047.61,367.22 1067.5,380C 1071.95,381.726 1076.29,383.726 1080.5,386C 1081.7,386.903 1082.53,388.069 1083,389.5C 1083.67,398.5 1083.67,407.5 1083,416.5C 1082.17,417.5 1081.33,418.5 1080.5,419.5C 1055.77,432.396 1033.11,448.229 1012.5,467C 1009.65,468.43 1006.65,469.263 1003.5,469.5C 1003.66,468.127 1003.49,466.793 1003,465.5C 999.145,459.79 995.812,453.79 993,447.5C 992.348,444.406 992.682,441.406 994,438.5C 997.167,434 1001,430.167 1005.5,427C 1016.98,418.091 1028.98,409.925 1041.5,402.5C 1030.81,396.764 1020.47,390.264 1010.5,383C 1004.33,378.167 998.833,372.667 994,366.5C 992.517,363.298 992.183,359.964 993,356.5C 995.667,351.167 998.333,345.833 1001,340.5C 1002.15,339.364 1003.31,338.364 1004.5,337.5 Z"/></g>
<g><path style="opacity:0.932" fill="#fefffe" d="M 1315.5,343.5 C 1348.19,343.691 1370.03,358.691 1381,388.5C 1382.48,397.787 1382.82,407.121 1382,416.5C 1379.32,422.512 1374.82,426.345 1368.5,428C 1345.47,430.422 1322.8,432.588 1300.5,434.5C 1306.92,442.582 1315.25,447.249 1325.5,448.5C 1339.18,447.11 1351.18,441.943 1361.5,433C 1365.32,431.977 1368.82,432.477 1372,434.5C 1376.3,441.443 1379.8,448.777 1382.5,456.5C 1382.24,457.689 1381.91,458.856 1381.5,460C 1363.4,480.212 1340.74,488.212 1313.5,484C 1276.58,476.236 1257.58,453.402 1256.5,415.5C 1257.09,389.15 1268.09,368.317 1289.5,353C 1293.71,350.814 1298.05,348.814 1302.5,347C 1307.12,346.334 1311.45,345.168 1315.5,343.5 Z M 1317.5,380.5 C 1328.78,380.641 1336.45,385.975 1340.5,396.5C 1326.54,398.496 1312.54,399.829 1298.5,400.5C 1300.79,389.879 1307.12,383.213 1317.5,380.5 Z"/></g>
<g><path style="opacity:0.925" fill="#fefffe" d="M 1391.5,350.5 C 1401.16,350.982 1410.83,351.482 1420.5,352C 1422.85,352.346 1424.68,353.513 1426,355.5C 1426.33,371.833 1426.67,388.167 1427,404.5C 1432.73,416.294 1439.73,427.294 1448,437.5C 1455.25,427.912 1461.25,417.579 1466,406.5C 1467.21,400.382 1468.05,394.216 1468.5,388C 1466.59,377.207 1466.25,366.374 1467.5,355.5C 1469.04,353.563 1471.04,352.396 1473.5,352C 1481.01,351.666 1488.51,351.166 1496,350.5C 1499.07,350.481 1501.91,351.147 1504.5,352.5C 1505.31,354.798 1506.14,357.132 1507,359.5C 1509.2,374.769 1509.86,390.103 1509,405.5C 1508.38,410.253 1507.38,414.92 1506,419.5C 1494.32,438.859 1481.66,457.526 1468,475.5C 1466.13,477.709 1463.96,479.542 1461.5,481C 1452.5,481.667 1443.5,481.667 1434.5,481C 1431.04,478.537 1427.87,475.704 1425,472.5C 1411.1,454.951 1398.44,436.617 1387,417.5C 1383.19,397.297 1382.53,376.963 1385,356.5C 1385.25,355.376 1385.75,354.376 1386.5,353.5C 1388.4,352.725 1390.06,351.725 1391.5,350.5 Z"/></g>
<g><path style="opacity:1" fill="#000000" d="M 358.5,358.5 C 364.17,358.339 367.003,361.006 367,366.5C 348.667,403.167 330.333,439.833 312,476.5C 307.939,480.737 304.272,480.403 301,475.5C 300.333,474.167 300.333,472.833 301,471.5C 319.669,433.495 338.835,395.828 358.5,358.5 Z"/></g>
<g><path style="opacity:1" fill="#000000" d="M 275.5,363.5 C 280.657,363.819 283.157,366.486 283,371.5C 272.385,386.45 261.385,401.116 250,415.5C 249.143,418.551 249.81,421.217 252,423.5C 262.333,437.5 272.667,451.5 283,465.5C 283.771,470.281 281.771,473.281 277,474.5C 274.501,473.917 272.501,472.584 271,470.5C 259.72,454.22 248.053,438.22 236,422.5C 235.125,421.127 234.625,419.627 234.5,418C 235.13,414.704 236.63,411.87 239,409.5C 249.667,395.5 260.333,381.5 271,367.5C 272.397,365.93 273.897,364.596 275.5,363.5 Z"/></g>
<g><path style="opacity:1" fill="#000000" d="M 390.5,363.5 C 393.617,363.642 396.117,364.976 398,367.5C 409.283,383.117 420.95,398.451 433,413.5C 435,416.5 435,419.5 433,422.5C 420.947,438.22 409.28,454.22 398,470.5C 394.623,475.197 390.957,475.53 387,471.5C 385.699,469.635 385.365,467.635 386,465.5C 397.803,450.04 408.97,434.207 419.5,418C 408.964,402.455 397.798,387.288 386,372.5C 385.377,368.412 386.877,365.412 390.5,363.5 Z"/></g>
<g><path style="opacity:1" fill="#dedaed" d="M 190.5,383.5 C 176.835,390.831 167.501,401.831 162.5,416.5C 162.543,417.416 162.876,418.083 163.5,418.5C 159.954,422.926 157.454,427.926 156,433.5C 155.333,502.833 155.333,572.167 156,641.5C 156.739,644.546 157.572,647.546 158.5,650.5C 157.506,660.987 157.172,671.654 157.5,682.5C 284.167,682.5 410.833,682.5 537.5,682.5C 537.5,598.833 537.5,515.167 537.5,431.5C 538.499,519.332 538.833,607.332 538.5,695.5C 421.833,695.333 305.166,695.5 188.5,696C 185.159,697.85 183.826,700.683 184.5,704.5C 160.998,714.175 153.165,731.175 161,755.5C 163.563,760.892 167.063,765.559 171.5,769.5C 152.83,769.667 134.164,769.5 115.5,769C 99.194,762.695 92.0274,750.862 94,733.5C 97.5,722 105,714.5 116.5,711C 132.167,710.667 147.833,710.333 163.5,710C 168.913,706.844 169.913,702.51 166.5,697C 165.5,696.667 164.5,696.333 163.5,696C 152.505,695.5 141.505,695.333 130.5,695.5C 130.333,607.499 130.5,519.499 131,431.5C 137.579,401.922 155.912,385.255 186,381.5C 187.986,381.569 189.486,382.235 190.5,383.5 Z"/></g>
<g><path style="opacity:1" fill="#f9f6f7" d="M 537.5,431.5 C 537.5,515.167 537.5,598.833 537.5,682.5C 410.833,682.5 284.167,682.5 157.5,682.5C 157.172,671.654 157.506,660.987 158.5,650.5C 163.719,660.875 172.053,667.375 183.5,670C 283.833,670.667 384.167,670.667 484.5,670C 500.658,667.176 510.158,657.676 513,641.5C 513.667,572.167 513.667,502.833 513,433.5C 507.982,416.24 496.482,407.573 478.5,407.5C 478.5,399.167 478.5,390.833 478.5,382.5C 511.171,383.17 530.837,399.504 537.5,431.5 Z"/></g>
<g><path style="opacity:1" fill="#f6f3f4" d="M 190.5,383.5 C 190.5,391.5 190.5,399.5 190.5,407.5C 179.511,406.501 170.511,410.167 163.5,418.5C 162.876,418.083 162.543,417.416 162.5,416.5C 167.501,401.831 176.835,390.831 190.5,383.5 Z"/></g>
<g><path style="opacity:1" fill="#554b54" d="M 190.5,427.5 C 188.286,429.995 187.119,432.995 187,436.5C 186.333,504.5 186.333,572.5 187,640.5C 187.927,646.354 190.427,651.354 194.5,655.5C 181.912,657.07 174.079,651.737 171,639.5C 170.333,571.5 170.333,503.5 171,435.5C 174.282,426.389 180.782,421.722 190.5,421.5C 190.5,423.5 190.5,425.5 190.5,427.5 Z"/></g>
<g><path style="opacity:1" fill="#6a5d68" d="M 194.5,655.5 C 190.427,651.354 187.927,646.354 187,640.5C 186.333,572.5 186.333,504.5 187,436.5C 187.119,432.995 188.286,429.995 190.5,427.5C 190.114,448.197 190.614,468.864 192,489.5C 199.463,515.152 216.296,530.652 242.5,536C 252.833,536.333 263.167,536.667 273.5,537C 285.167,548.667 296.833,560.333 308.5,572C 324.376,582.635 340.709,583.302 357.5,574C 370.99,562.378 383.99,550.045 396.5,537C 408.203,536.832 419.87,536.166 431.5,535C 457.731,527.056 473.231,509.556 478,482.5C 478.667,474.833 478.667,467.167 478,459.5C 476.951,457.616 475.451,456.282 473.5,455.5C 473.5,450.167 473.5,444.833 473.5,439.5C 475.504,438.327 477.004,436.66 478,434.5C 478.499,430.179 478.666,425.846 478.5,421.5C 488.218,421.722 494.718,426.389 498,435.5C 498.667,503.5 498.667,571.5 498,639.5C 496.345,647.155 491.845,652.321 484.5,655C 387.834,655.5 291.167,655.667 194.5,655.5 Z"/></g>
<g><path style="opacity:0.954" fill="#fefffe" d="M 711.5,483.5 C 756.681,479.733 795.181,493.733 827,525.5C 832.053,531.552 836.719,537.885 841,544.5C 841.614,550.967 839.614,556.634 835,561.5C 827.142,570.356 818.976,578.856 810.5,587C 806.5,590.333 802.5,590.333 798.5,587C 789.475,576.976 780.142,567.31 770.5,558C 744.113,538.231 717.113,537.398 689.5,555.5C 666.573,574.665 654.407,599.332 653,629.5C 652.12,664.557 664.953,693.39 691.5,716C 703.478,724.108 716.812,728.275 731.5,728.5C 752.791,728.292 772.291,722.625 790,711.5C 788.477,688.679 786.643,665.846 784.5,643C 784.331,637.671 786.331,633.338 790.5,630C 808.841,629.522 827.174,629.522 845.5,630C 851.002,633.357 853.335,638.357 852.5,645C 850.597,684.913 851.597,724.747 855.5,764.5C 854.07,773.744 848.736,777.244 839.5,775C 830.999,771.448 822.666,767.615 814.5,763.5C 776.258,785.502 735.258,791.669 691.5,782C 663.352,773.505 640.185,757.672 622,734.5C 599.942,705.298 589.442,672.298 590.5,635.5C 588.835,581.299 609.502,537.799 652.5,505C 670.626,493.349 690.293,486.183 711.5,483.5 Z"/></g>
<g><path style="opacity:0.955" fill="#fefffe" d="M 1145.5,483.5 C 1151.27,482.913 1155.77,484.913 1159,489.5C 1157.98,517.689 1157.15,546.022 1156.5,574.5C 1156.83,580.167 1157.17,585.833 1157.5,591.5C 1167.64,582.175 1179.31,575.675 1192.5,572C 1247,564.521 1284.16,586.355 1304,637.5C 1313.41,666.816 1312.41,695.816 1301,724.5C 1273.21,779.215 1230.37,796.048 1172.5,775C 1167.07,771.532 1161.9,767.699 1157,763.5C 1156,767.5 1155,771.5 1154,775.5C 1153.17,777.667 1151.67,779.167 1149.5,780C 1133.17,780.667 1116.83,780.667 1100.5,780C 1097.9,779.065 1096.4,777.232 1096,774.5C 1095.89,766.42 1096.55,758.42 1098,750.5C 1098.89,720.507 1099.39,690.507 1099.5,660.5C 1098.97,605.449 1097.47,550.449 1095,495.5C 1095.73,491.766 1097.9,489.266 1101.5,488C 1116.38,487.159 1131.05,485.659 1145.5,483.5 Z M 1200.5,621.5 C 1224.55,622.029 1240.72,633.695 1249,656.5C 1257.83,687.201 1248.99,711.034 1222.5,728C 1188.45,736.219 1166.62,723.386 1157,689.5C 1152.88,664.85 1160.38,644.683 1179.5,629C 1186.28,625.404 1193.28,622.904 1200.5,621.5 Z"/></g>
<g><path style="opacity:0.94" fill="#fefffe" d="M 1755.5,488.5 C 1764.24,488.327 1772.9,488.993 1781.5,490.5C 1790.1,488.827 1798.77,488.327 1807.5,489C 1809.61,490.141 1811.44,491.641 1813,493.5C 1810.37,539.261 1808.87,585.094 1808.5,631C 1809.7,679.501 1809.7,728.001 1808.5,776.5C 1807.53,778.636 1805.86,779.803 1803.5,780C 1788.83,780.667 1774.17,780.667 1759.5,780C 1756.43,779.261 1754.26,777.428 1753,774.5C 1752.17,721.596 1752.34,668.763 1753.5,616C 1752.15,579.039 1750.48,542.039 1748.5,505C 1747.27,497.813 1749.61,492.313 1755.5,488.5 Z"/></g>
<g><path style="opacity:0.918" fill="#fefffe" d="M 1488.5,504.5 C 1518.79,505.608 1530.95,520.942 1525,550.5C 1518.08,562.545 1507.58,568.212 1493.5,567.5C 1468.4,567.226 1457.23,554.56 1460,529.5C 1462.91,519.584 1469.08,512.417 1478.5,508C 1482.11,507.262 1485.44,506.095 1488.5,504.5 Z"/></g>
<g><path style="opacity:1" fill="#000000" d="M 380.5,565.5 C 410.169,565.333 439.835,565.5 469.5,566C 475.759,570.167 476.092,574.833 470.5,580C 440.167,580.667 409.833,580.667 379.5,580C 374.003,574.683 374.336,569.85 380.5,565.5 Z"/></g>
<g><path style="opacity:0.95" fill="#fefffe" d="M 1633.5,568.5 C 1674.38,567.527 1704.88,584.86 1725,620.5C 1734.18,638.771 1737.18,658.104 1734,678.5C 1729.53,687.998 1722.03,693.498 1711.5,695C 1702.78,695.67 1694.12,696.67 1685.5,698C 1657.49,700.301 1629.49,702.801 1601.5,705.5C 1611.41,723.787 1626.74,733.454 1647.5,734.5C 1661.7,733.965 1675.03,730.465 1687.5,724C 1694.68,719.245 1701.68,714.245 1708.5,709C 1711.47,708.617 1714.31,709.117 1717,710.5C 1723.64,721.078 1729.14,732.245 1733.5,744C 1733.26,745.984 1732.59,747.817 1731.5,749.5C 1713.93,769.454 1691.93,781.287 1665.5,785C 1633.08,789.168 1603.75,781.835 1577.5,763C 1552.56,740.356 1540.56,712.19 1541.5,678.5C 1541.59,639.484 1557.26,608.317 1588.5,585C 1602.47,576.273 1617.47,570.773 1633.5,568.5 Z M 1633.5,619.5 C 1647.51,618.778 1659.01,623.778 1668,634.5C 1671.46,639.593 1673.96,645.093 1675.5,651C 1650.21,656.685 1624.54,659.018 1598.5,658C 1602.76,638.244 1614.43,625.411 1633.5,619.5 Z"/></g>
<g><path style="opacity:0.952" fill="#fefffe" d="M 951.5,570.5 C 980.391,567.41 1004.56,576.41 1024,597.5C 1024.92,592.246 1026.58,587.246 1029,582.5C 1030.21,580.951 1031.71,579.785 1033.5,579C 1046.46,579.137 1059.12,581.137 1071.5,585C 1074.27,586.467 1076.77,588.3 1079,590.5C 1079.67,593.833 1079.67,597.167 1079,600.5C 1074.62,624.591 1071.79,648.924 1070.5,673.5C 1072.51,704.332 1074.51,735.166 1076.5,766C 1077.18,771.296 1075.51,775.629 1071.5,779C 1058.78,780.2 1046.11,781.7 1033.5,783.5C 1028.86,783.432 1025.36,781.432 1023,777.5C 1020.61,771.725 1019.11,765.725 1018.5,759.5C 983.144,790.666 945.478,793.833 905.5,769C 866.184,735.766 853.018,693.932 866,643.5C 879.666,601.659 908.166,577.326 951.5,570.5 Z M 965.5,622.5 C 992.16,624.314 1008.66,638.314 1015,664.5C 1019.22,689.513 1011.39,709.68 991.5,725C 959.415,738.331 936.582,728.831 923,696.5C 915.05,668.784 922.55,646.284 945.5,629C 951.953,625.893 958.62,623.726 965.5,622.5 Z"/></g>
<g><path style="opacity:0.947" fill="#fefffe" d="M 1363.5,574.5 C 1368.22,573.553 1372.06,574.886 1375,578.5C 1377.43,583.559 1378.93,588.892 1379.5,594.5C 1389.04,587.731 1399.37,582.564 1410.5,579C 1422.84,577.023 1435.17,577.023 1447.5,579C 1449.33,580.167 1450.83,581.667 1452,583.5C 1453.31,600.007 1452.31,616.34 1449,632.5C 1446.27,637.255 1442.1,639.255 1436.5,638.5C 1424.82,636.817 1413.15,636.65 1401.5,638C 1395.3,638.842 1390.8,642.009 1388,647.5C 1386.08,652.638 1385.08,657.971 1385,663.5C 1384.44,692.503 1384.6,721.503 1385.5,750.5C 1385.64,759.596 1385.14,768.596 1384,777.5C 1382.83,778.893 1381.33,779.727 1379.5,780C 1364.5,780.667 1349.5,780.667 1334.5,780C 1330.67,778.833 1328.17,776.333 1327,772.5C 1327.54,729.841 1327.54,687.174 1327,644.5C 1325.79,633.154 1324.45,621.821 1323,610.5C 1321.88,605.729 1320.54,601.062 1319,596.5C 1316.96,589.909 1318.79,584.909 1324.5,581.5C 1335.1,579.693 1345.77,578.193 1356.5,577C 1358.93,576.098 1361.26,575.264 1363.5,574.5 Z"/></g>
<g><path style="opacity:0.938" fill="#fefffe" d="M 1466.5,580.5 C 1484.17,581.639 1501.84,581.806 1519.5,581C 1521.62,582.122 1523.46,583.622 1525,585.5C 1523.81,623.138 1522.98,660.805 1522.5,698.5C 1522.89,723.171 1523.06,747.837 1523,772.5C 1521.87,776.3 1519.37,778.8 1515.5,780C 1501.17,780.667 1486.83,780.667 1472.5,780C 1467.79,779.112 1464.96,776.279 1464,771.5C 1464.79,736.51 1465.12,701.51 1465,666.5C 1462.58,639.534 1461.25,612.534 1461,585.5C 1462.73,583.598 1464.56,581.931 1466.5,580.5 Z"/></g>
<g><path style="opacity:1" fill="#000000" d="M 203.5,593.5 C 261.168,593.333 318.834,593.5 376.5,594C 381.416,596.489 382.749,600.323 380.5,605.5C 379.5,606.333 378.5,607.167 377.5,608C 319.5,608.667 261.5,608.667 203.5,608C 196.899,603.171 196.899,598.338 203.5,593.5 Z"/></g>
<g><path style="opacity:1" fill="#000000" d="M 407.5,593.5 C 428.169,593.333 448.836,593.5 469.5,594C 474.143,596.072 475.643,599.572 474,604.5C 472.786,606.049 471.286,607.215 469.5,608C 448.833,608.667 428.167,608.667 407.5,608C 400.899,603.171 400.899,598.338 407.5,593.5 Z"/></g>
<g><path style="opacity:1" fill="#030202" d="M 202.5,620.5 C 223.836,620.333 245.169,620.5 266.5,621C 270.696,623.981 271.529,627.814 269,632.5C 268.097,633.701 266.931,634.535 265.5,635C 244.833,635.667 224.167,635.667 203.5,635C 197.335,630.524 197.001,625.691 202.5,620.5 Z"/></g>
<g><path style="opacity:1" fill="#020202" d="M 295.5,620.5 C 353.834,620.333 412.168,620.5 470.5,621C 474.701,624.025 475.535,627.859 473,632.5C 472.097,633.701 470.931,634.535 469.5,635C 411.833,635.667 354.167,635.667 296.5,635C 290.292,630.58 289.958,625.747 295.5,620.5 Z"/></g>
<g><path style="opacity:1" fill="#f9f6f7" d="M 184.5,704.5 C 184.848,707.019 186.181,708.853 188.5,710C 212.498,710.5 236.498,710.667 260.5,710.5C 259.956,729.252 268.623,741.418 286.5,747C 318.167,747.667 349.833,747.667 381.5,747C 400.117,741.929 409.117,729.763 408.5,710.5C 457.547,710.019 506.547,710.519 555.5,712C 571.687,719.541 577.854,732.041 574,749.5C 570.007,759.493 562.84,765.993 552.5,769C 425.5,769.5 298.5,769.667 171.5,769.5C 167.063,765.559 163.563,760.892 161,755.5C 153.165,731.175 160.998,714.175 184.5,704.5 Z"/></g>
<g><path style="opacity:1" fill="#dfdbee" d="M 275.5,710.5 C 314.833,710.5 354.167,710.5 393.5,710.5C 394.398,720.875 390.065,728.042 380.5,732C 349.833,732.667 319.167,732.667 288.5,732C 278.935,728.042 274.602,720.875 275.5,710.5 Z"/></g>
</svg>
